<?xml version="1.0" standalone="no"?>
<!DOCTYPE svg PUBLIC "-//W3C//DTD SVG 20010904//EN"
 "http://www.w3.org/TR/2001/REC-SVG-20010904/DTD/svg10.dtd">
<svg version="1.0" xmlns="http://www.w3.org/2000/svg"
 width="1080.000000pt" height="1080.000000pt" viewBox="0 0 1080.000000 1080.000000"
 preserveAspectRatio="xMidYMid meet">
<metadata>
Created by potrace 1.14, written by Peter Selinger 2001-2017
</metadata>
<g transform="translate(0.000000,1080.000000) scale(0.100000,-0.100000)"
fill="#000000" stroke="none">
<path d="M0 5400 l0 -5400 5400 0 5400 0 0 5400 0 5400 -5400 0 -5400 0 0
-5400z m4280 1440 l0 -410 230 0 230 0 0 -295 0 -295 -231 0 -230 0 3 -422 c3
-418 3 -424 26 -475 38 -84 60 -98 151 -98 64 0 85 4 129 27 37 19 54 24 57
15 10 -27 185 -596 185 -600 0 -10 -176 -79 -246 -97 -219 -56 -462 -52 -633
12 -247 92 -400 333 -430 675 -6 65 -11 308 -11 540 l0 422 -157 3 -158 3 0
290 0 290 158 3 157 3 0 409 0 410 385 0 385 0 0 -410z m2370 -383 c188 -50
326 -130 467 -272 190 -191 298 -412 334 -683 18 -136 6 -375 -24 -493 -51
-196 -127 -345 -249 -489 -217 -255 -523 -384 -870 -367 -246 11 -436 80 -608
219 l-60 49 0 -666 0 -665 -385 0 -385 0 2 1668 3 1667 378 3 377 2 0 -125 c0
-69 4 -125 8 -125 4 0 30 23 57 51 115 117 297 211 474 244 120 23 360 14 481
-18z"/>
<path d="M6016 5828 c-122 -23 -256 -118 -323 -230 -120 -198 -85 -490 76
-648 238 -232 642 -185 811 96 88 147 94 370 12 534 -36 72 -133 170 -202 203
-103 50 -253 69 -374 45z"/>
</g>
</svg>
