<?xml version="1.0" standalone="no"?>
<!DOCTYPE svg PUBLIC "-//W3C//DTD SVG 20010904//EN"
 "http://www.w3.org/TR/2001/REC-SVG-20010904/DTD/svg10.dtd">
<svg version="1.0" xmlns="http://www.w3.org/2000/svg"
 width="500.000000pt" height="500.000000pt" viewBox="0 0 500.000000 500.000000"
 preserveAspectRatio="xMidYMid meet">
<metadata>
Created by potrace 1.14, written by Peter Selinger 2001-2017
</metadata>
<g transform="translate(0.000000,500.000000) scale(0.100000,-0.100000)"
fill="#000000" stroke="none">
<path d="M0 2500 l0 -2500 2500 0 2500 0 0 2500 0 2500 -2500 0 -2500 0 0
-2500z m2040 1467 c0 -2 -164 -195 -364 -428 -201 -233 -364 -424 -363 -426 1
-1 27 5 57 14 73 19 212 12 305 -17 212 -67 391 -207 491 -385 83 -150 116
-279 116 -465 0 -326 -128 -568 -380 -715 -90 -53 -151 -77 -282 -113 -87 -23
-112 -26 -285 -25 -175 0 -198 2 -290 27 -316 86 -572 306 -659 566 -38 115
-49 229 -36 389 30 376 140 573 676 1214 l308 367 353 0 c194 0 353 -2 353 -3z
m1655 -932 c80 -20 210 -85 262 -129 22 -20 44 -36 47 -36 3 0 6 32 6 70 l0
70 270 0 270 0 0 -785 0 -785 -270 0 -270 0 0 91 0 91 -62 -56 c-35 -31 -99
-74 -143 -96 -217 -110 -518 -90 -734 47 -76 48 -187 166 -239 253 -168 282
-161 669 17 941 57 87 172 199 253 247 68 40 177 79 256 92 78 12 264 4 337
-15z"/>
<path d="M1251 2639 c-71 -12 -164 -63 -208 -113 -112 -131 -133 -309 -54
-464 106 -207 417 -254 597 -90 91 84 131 187 121 314 -14 183 -141 325 -317
353 -36 6 -69 10 -75 10 -5 -1 -34 -5 -64 -10z"/>
<path d="M3582 2589 c-110 -19 -213 -97 -261 -199 -23 -49 -26 -67 -26 -165 0
-98 3 -116 26 -165 48 -101 136 -167 257 -190 262 -52 474 154 431 419 -33
207 -216 336 -427 300z"/>
</g>
</svg>
